PathFileType	4	(X/Y/Z)	Patient4_TMGait_0pt3_01_right_13.trc.trc
DataRate	CameraRate	NumFrames	NumMarkers	Units	OrigDataRate	OrigDataStartFrame	OrigNumFrames
55.118110236220	55.118110236220	5	33	mm	55.118110236220	124	       141
Frame#	Time	Sacral			L.Shoulder			Chest			R.Shoulder			Neck			R.ASIS			L.ASIS			R.Thigh.Superior			R.Thigh.Lateral			R.Thigh.Inferior			R.Patella			L.Thigh.Superior			L.Thigh.Lateral			L.Thigh.Inferior			L.Patella			L.Shank.Superior			L.Shank.Lateral			L.Shank.Inferior			R.Shank.Superior			R.Shank.Lateral			R.Shank.Inferior			R.Heel			R.Midfoot.Superior			R.Midfoot.Lateral			R.Toe			L.Heel			L.Midfoot.Lateral			L.Midfoot.Superior			L.Toe			L.Elbow			L.Wrist			R.Elbow			R.Wrist			
		X1	Y1	Z1	X2	Y2	Z2	X3	Y3	Z3	X4	Y4	Z4	X5	Y5	Z5	X6	Y6	Z6	X7	Y7	Z7	X8	Y8	Z8	X9	Y9	Z9	X10	Y10	Z10	X11	Y11	Z11	X12	Y12	Z12	X13	Y13	Z13	X14	Y14	Z14	X15	Y15	Z15	X16	Y16	Z16	X17	Y17	Z17	X18	Y18	Z18	X19	Y19	Z19	X20	Y20	Z20	X21	Y21	Z21	X22	Y22	Z22	X23	Y23	Z23	X24	Y24	Z24	X25	Y25	Z25	X26	Y26	Z26	X27	Y27	Z27	X28	Y28	Z28	X29	Y29	Z29	X30	Y30	Z30	X31	Y31	Z31	X32	Y32	Z32	X33	Y33	Z33	

124	25.461571428571	749.135622769251	993.425651389045	449.605730464789	954.706123685778	1429.121414690890	311.669492706354	1013.479824107642	1362.784712464739	493.939748730535	885.620971528811	1433.939187515069	640.051165798985	902.742325542702	1490.399553465446	463.370728843105	953.305484077382	940.889097469944	611.986769537439	991.932356847740	956.808443514052	339.038796834119	1025.365539299718	753.184826038639	596.534849920546	958.047683824595	634.895811217101	655.594752951191	1053.713112354829	593.522145824113	587.901951751183	1072.641493934035	509.724324793773	604.266330201689	994.675057535371	727.643867425766	373.729888138036	888.820865225008	627.030746521738	299.209231965551	940.331703697848	538.085301823685	374.757835723329	923.955342361854	471.809305339032	384.642279811227	891.322986037742	404.386785054242	373.771990312024	793.734866134286	299.494617557527	317.141872128024	822.044193587355	185.657028211534	395.881959351819	1052.716300205585	419.209479717846	614.605815033700	986.433530834016	310.377502529192	673.572820317763	1053.245174070640	219.465543622392	628.318817892783	948.753680364889	42.075926857421	595.010082383625	1110.461352395922	107.078656672200	646.299485790710	1026.362179397241	37.874795465226	675.085819195277	1230.580695522441	66.622202694808	683.732489603073	677.419947147656	37.702369379123	431.234443246977	754.555787747099	35.384824374630	353.838160580234	837.826466488566	95.125684664122	385.196778738874	966.610455970868	41.640480890868	360.670108872030	1082.831606550600	1126.770854810769	160.726979023350	1333.460623365823	1151.026504674301	215.830771224109	717.514638474160	1127.838014729822	719.232003633071	706.453611378171	866.269903382944	737.999296033690	
125	25.479714285714	751.459817701426	992.466626476254	451.936454930123	956.689264013263	1428.442680231649	316.382942003499	1014.823435123116	1361.886649741900	498.817320969685	886.020705223079	1432.633769520457	644.406148349372	903.904857463574	1489.355225589228	467.999418100944	954.775283088023	939.520804717895	615.623275011597	994.950253876912	955.909597736146	342.930281876342	1026.540555536928	751.363687268404	599.971981521535	957.633359430356	633.121271790731	657.305214461247	1053.933864795058	591.887639969287	590.406575139355	1071.721853007651	507.578910994814	605.901785999264	995.782090509504	726.081476205852	376.539621323631	888.802004229511	626.645245645953	301.501254073956	939.114821911540	536.972847954245	376.936246556961	922.050969371117	470.680005268511	386.537557904734	888.742556008270	403.714274549917	375.297550166756	790.194034860893	299.919686059095	318.027424265231	817.521600929205	185.456770927372	396.273465501903	1051.588626378081	416.843826172369	615.732743061224	984.555284777166	308.308711343548	674.316786338210	1050.209869860062	217.020566126110	628.335464966069	943.252539666963	41.849948559168	594.538748878976	1106.160310399260	104.340499723142	645.836497544960	1020.633491649881	36.895116967668	674.890256733244	1225.567203593373	61.819001550248	683.401164524427	672.002770711903	37.874173720817	431.160171820310	749.190449099377	35.421735362104	353.859357980301	832.535921684178	95.125741511158	385.214974470476	961.273858740886	41.387221573559	360.663415511557	1085.594895046760	1126.870741377114	164.768498112178	1335.186384694229	1158.929032042206	219.914665451217	720.086429143711	1124.988608217318	722.414253774474	711.705255136431	863.225622288966	741.547634055902	
126	25.497857142857	753.731691725340	991.844785982668	454.422664685708	959.050038505071	1428.025909342898	321.239602164581	1016.434954990537	1361.137632796767	503.839607550310	886.684364122581	1431.534602752713	648.865757660182	905.341184218600	1488.562708363170	472.765513807046	956.253451436329	938.521316284211	619.420407178941	997.819478057795	955.151469009320	346.933617095038	1027.991869571517	750.157109968494	603.234159233730	957.931124670767	631.930253336448	659.156039133631	1054.627619422079	590.770408930953	592.761491247261	1071.449278346114	505.856783789704	607.498571591277	996.921715571469	724.692887436576	379.505699144981	888.990911011772	626.305580341413	304.041541095194	938.335262292848	535.954801995243	379.313821364272	920.674673164402	469.547674740858	388.611553762952	886.566679262464	403.072041244648	376.985913592251	786.910866625015	300.529332915450	319.083655703360	813.177762454171	185.351008133994	396.701621165757	1050.926823953239	414.923162337420	616.811823632095	983.125951526888	306.777678566354	675.222085039012	1047.278264070440	214.999770988793	628.304879639861	937.598486057579	41.876674889979	594.157204166957	1101.670191176178	102.109245914356	645.364831918145	1014.805064532342	36.289921861767	674.734158656958	1220.440729375945	57.653566132332	683.017061839566	666.628314365688	38.251534213036	431.058822041844	743.880650532773	35.562898933010	353.883151564742	827.346087663438	95.172274059434	385.214905009434	955.990685180485	41.066450581098	360.634458211790	1088.322368027426	1126.904568716917	169.111478690331	1336.838695828904	1165.847738369572	224.164324042225	723.303251834315	1122.037499803709	725.914974376219	718.199000495613	860.154587371552	745.722417495894	
127	25.516000000000	755.910939442175	991.581563344687	457.153037418236	961.738887169460	1427.888896396804	326.177851631809	1018.296560660235	1360.571862099378	508.936938933275	887.637914251959	1430.702036081404	653.382869584429	907.040673369700	1488.056162551637	477.603585625415	957.753310502781	937.915661298456	623.357249228162	1000.451665907370	954.575894904712	351.007509821591	1029.649122086765	749.524222912598	606.321023697919	958.818856693537	631.284931799406	661.189509194086	1055.642246420783	590.097446876083	594.993721568949	1071.638695704663	504.529919169417	609.077491092200	998.010636479960	723.535177289904	382.584628662137	889.291453400142	626.066545146431	306.792492552349	937.934243848959	535.075365352987	381.821832655886	919.777995050997	468.455116849207	390.790080345398	884.752069785648	402.506561279427	378.780151821479	783.842039346631	301.366276140863	320.292323477451	809.010183094247	185.388026318048	397.143010268241	1050.574016481421	413.434553719831	617.880281516253	982.029686117573	305.741007722375	676.292947987730	1044.425218670268	213.409040132384	628.279338837234	931.945653564469	42.072533108647	593.902549563306	1097.062155161103	100.418972534422	644.942252355927	1009.031062737813	36.003735210691	674.645690222566	1215.307337033791	54.260727066524	682.642418917520	661.304241835382	38.916128908350	430.931176880616	738.627238303039	35.854446607207	353.904885342893	822.272351657393	95.283017709295	385.185675658257	950.752258160958	40.684196532955	360.582250742404	1091.034843074284	1126.928416079546	173.708305278593	1338.506517111724	1171.737030936482	228.600576729906	726.984556524055	1119.197564895616	729.699319354520	725.768174179849	857.298077652869	750.490502819363	
128	25.534142857143	757.970213629642	991.667065474369	460.215265815102	964.659106550341	1428.021983450724	331.133912249843	1020.372251773102	1360.209794097243	514.033320402010	888.898267144450	1430.168686755501	657.920212570545	908.970174576790	1487.844290529362	482.452032700475	959.297415090768	937.687563195355	627.404869790587	1002.784218817206	954.207724539316	355.115601641340	1031.400591962950	749.346702133332	609.274997017628	960.072490098207	631.088368083108	663.427533604240	1056.766253079154	589.752354327032	597.156958117132	1072.038482517887	503.529678788706	610.667999425331	999.004944335799	722.651244767328	385.724371223380	889.639226891633	625.971469443190	309.710952944116	937.880387287940	534.368559912195	384.386560912684	919.339968893679	467.435983974516	392.992645067208	883.274649886027	402.054801899479	380.619721141822	780.960915658301	302.470253246985	321.628847031919	805.022371461677	185.613806765512	397.571326917169	1050.313752158460	412.322757394069	618.977954283081	981.068657801233	305.109850766964	677.500204827028	1041.570899552389	212.209748063874	628.302140511225	926.372367211104	42.361931402494	593.779668165230	1092.362534505915	99.237673703562	644.605494118276	1003.381522709272	35.960913588142	674.630867084928	1210.207197166214	51.653941461446	682.327321248291	656.039072962656	39.958818754472	430.779202803882	733.427130273674	36.348177470380	353.918677303428	817.328760088753	95.476893891906	385.114567386350	945.541603235615	40.252539985822	360.508412635441	1093.724073089375	1126.977342720678	178.509082417156	1340.245012544251	1176.540899728337	233.236012134795	730.976989351519	1116.640648867478	733.750910556891	734.277132938689	854.860761257767	755.813556644544	
